:FULLY-SPECIFIED
:FORCE-ALL-JOINTS-BE-3DOF
:DEGREES
815
root 1.96192 16.713 22.541 5.00468 1.83111 353.518
lfemur -39.698 0.559225 -0.281321
ltibia 21.8073 0 0
lfoot -9.19832 6.66918 0
ltoes 14.4502 0 0
rfemur 0.5095 4.78051 21.9255
rtibia 22.8266 0 0
rfoot -22.2666 -10.1812 0
rtoes -21.9747 0 0
lowerback 0.914862 5.90682 5.67842
upperback -0.0805568 7.93448 -0.323897
thorax 0.21885 3.97185 -3.47822
lowerneck -5.96449 -1.68415 2.87207
upperneck -0.924203 -2.43981 1.36072
head 0.681354 -1.20397 -0.11296
lclavicle 8.26944e-014 1.07344e-014 0
lhumerus -53.0701 -7.31291 91.7935
lradius 53.9866 0 0
lwrist 19.7939 0 0
lhand -11.2722 5.17551 0
lfingers 7.12502 0 0
lthumb 14.7583 34.6301 0
rclavicle 8.26944e-014 1.07344e-014 0
rhumerus -30.9049 45.5457 -111.566
rradius 67.6532 0 0
rwrist -0.988598 0 0
rhand -11.2537 -25.3793 0
rfingers 7.12502 0 0
rthumb 14.7761 -774.833 0
816
root 2.00627 16.6818 22.7192 4.85023 0.835629 -6.64065
lfemur -39.1246 0.712552 -0.054233
ltibia 21.7798 -0 0
lfoot -8.85058 7.53446 0.026316
ltoes 15.0698 -0 0
rfemur 1.43087 4.70102 21.775
rtibia 22.4558 -0 0
rfoot -22.079 -10.4565 -0.00450823
rtoes -23.2176 0 0
lowerback 0.716418 6.05062 5.70374
upperback -0.147216 8.11484 -0.259243
thorax 0.271024 4.06222 -3.39866
lowerneck -5.89594 -1.63442 2.97723
upperneck -0.625574 -2.38554 1.32713
head 0.763691 -1.17214 -0.141014
lclavicle -4.50247e-014 1.11319e-014 0
lhumerus -53.2506 -7.00775 91.5013
lradius 53.7496 -0 0
lwrist 19.4563 0 0
lhand -10.5417 5.22692 0.00328153
lfingers 7.12502 -0 0
lthumb 15.4609 34.614 -0.000990019
rclavicle -4.50247e-014 1.11319e-014 0
rhumerus -30.6727 45.3313 -110.743
rradius 67.5157 -0 0
rwrist -1.14801 0 0
rhand -10.7004 -24.807 0.0276808
rfingers 7.12502 -0 0
rthumb 15.3085 -54.2124 0.0288806
817
root 2.05061 16.6505 22.8973 4.69855 -0.160272 -6.7966
lfemur -38.5506 0.863597 0.174387
ltibia 21.7522 -0 0
lfoot -8.50248 8.39988 0.0473771
ltoes 15.6893 -0 0
rfemur 2.35235 4.62396 21.6233
rtibia 22.085 -0 0
rfoot -21.8914 -10.7319 -0.00811499
rtoes -24.4605 0 0
lowerback 0.517984 6.19451 5.72856
upperback -0.2137 8.29528 -0.194772
thorax 0.323329 4.15252 -3.319
lowerneck -5.82731 -1.58482 3.08244
upperneck -0.326988 -2.3311 1.29383
head 0.846012 -1.14028 -0.169022
lclavicle -4.50247e-014 1.11319e-014 0
lhumerus -53.4325 -6.70351 91.2083
lradius 53.5126 -0 0
lwrist 19.1186 0 0
lhand -9.81125 5.27836 0.0059074
lfingers 7.12502 -0 0
lthumb 16.1634 34.5978 -0.00178221
rclavicle -4.50247e-014 1.11319e-014 0
rhumerus -30.4458 45.1146 -109.924
rradius 67.3782 -0 0
rwrist -1.30742 0 0
rhand -10.1468 -24.2344 0.0498318
rfingers 7.12502 -0 0
rthumb 15.8411 -53.5916 0.0519922
818
root 2.09496 16.6193 23.0755 4.54956 -1.15658 -6.94995
lfemur -37.976 1.01234 0.404518
ltibia 21.7247 -0 0
lfoot -8.15411 9.26542 0.0631778
ltoes 16.3089 -0 0
rfemur 3.27393 4.54933 21.4704
rtibia 21.7141 -0 0
rfoot -21.7038 -11.0072 -0.0108202
rtoes -25.7034 0 0
lowerback 0.319558 6.33849 5.75289
upperback -0.280009 8.47579 -0.130482
thorax 0.375767 4.24275 -3.23926
lowerneck -5.75858 -1.53534 3.18772
upperneck -0.0284461 -2.27648 1.26082
head 0.928316 -1.10837 -0.196984
lclavicle -4.50247e-014 1.11319e-014 0
lhumerus -53.6158 -6.4002 90.9145
lradius 53.2755 -0 0
lwrist 18.781 0 0
lhand -9.08077 5.32984 0.00787718
lfingers 7.12502 -0 0
lthumb 16.866 34.5817 -0.00237646
rclavicle -4.50247e-014 1.11319e-014 0
rhumerus -30.2241 44.8957 -109.109
rradius 67.2408 -0 0
rwrist -1.46683 0 0
rhand -9.59301 -23.6617 0.0664488
rfingers 7.12502 -0 0
rthumb 16.374 -52.9705 0.06933
819
root 2.1393 16.5881 23.2537 4.40316 -2.15328 -7.10078
lfemur -37.4008 1.15877 0.636141
ltibia 21.6971 -0 0
lfoot -7.80553 10.131 0.073714
ltoes 16.9284 -0 0
rfemur 4.19561 4.47717 21.3163
rtibia 21.3433 -0 0
rfoot -21.5162 -11.2826 -0.0126237
rtoes -26.9463 0 0
lowerback 0.121138 6.48255 5.77672
upperback -0.346145 8.65638 -0.0663733
thorax 0.428336 4.3329 -3.15942
lowerneck -5.68976 -1.48599 3.29304
upperneck 0.270054 -2.22169 1.22809
head 1.0106 -1.07642 -0.224899
lclavicle -4.50247e-014 1.11319e-014 0
lhumerus -53.8006 -6.09783 90.6199
lradius 53.0385 -0 0
lwrist 18.4434 0 0
lhand -8.35028 5.38134 0.00919054
lfingers 7.12502 -0 0
lthumb 17.5686 34.5655 -0.00277268
rclavicle -4.50247e-014 1.11319e-014 0
rhumerus -30.0077 44.6745 -108.299
rradius 67.1033 -0 0
rwrist -1.62624 0 0
rhand -9.03909 -23.0888 0.0775286
rfingers 7.12502 -0 0
rthumb 16.907 -52.3494 0.0808905
820
root 2.18365 16.5568 23.4318 4.25927 -3.15036 -7.24917
lfemur -36.8249 1.30287 0.869235
ltibia 21.6696 -0 0
lfoot -7.45684 10.9967 0.0789828
ltoes 17.548 -0 0
rfemur 5.1174 4.40749 21.1611
rtibia 20.9725 -0 0
rfoot -21.3286 -11.558 -0.0135254
rtoes -28.1892 0 0
lowerback -0.0772789 6.62669 5.80006
upperback -0.412108 8.83703 -0.00244442
thorax 0.481038 4.42298 -3.07949
lowerneck -5.62086 -1.43677 3.39843
upperneck 0.568511 -2.16674 1.19565
head 1.09288 -1.04443 -0.252769
lclavicle -4.50247e-014 1.11319e-014 0
lhumerus -53.9869 -5.7964 90.3245
lradius 52.8015 -0 0
lwrist 18.1057 0 0
lhand -7.6198 5.43284 0.00984728
lfingers 7.12502 -0 0
lthumb 18.2712 34.5494 -0.0029708
rclavicle -4.50247e-014 1.11319e-014 0
rhumerus -29.7965 44.4512 -107.493
rradius 66.9658 -0 0
rwrist -1.78565 0 0
rhand -8.48509 -22.5158 0.0830691
rfingers 7.12502 -0 0
rthumb 17.4401 -51.7281 0.0866713
821
root 2.22799 16.5256 23.61 4.1178 -4.1478 -7.39523
lfemur -36.2484 1.44462 1.10378
ltibia 21.642 -0 0
lfoot -7.1081 11.8624 0.0789828
ltoes 18.1675 -0 0
rfemur 6.03929 4.3403 21.0048
rtibia 20.6017 -0 0
rfoot -21.1409 -11.8333 -0.0135254
rtoes -29.4322 0 0
lowerback -0.275696 6.77091 5.8229
upperback -0.4779 9.01777 0.0613055
thorax 0.533872 4.51299 -2.99946
lowerneck -5.55187 -1.38767 3.50387
upperneck 0.866926 -2.11161 1.16349
head 1.17513 -1.01241 -0.280592
lclavicle -4.50247e-014 1.11319e-014 0
lhumerus -54.1747 -5.49594 90.0283
lradius 52.5645 -0 0
lwrist 17.7681 0 0
lhand -6.88932 5.48436 0.00984728
lfingers 7.12502 -0 0
lthumb 18.9737 34.5332 -0.0029708
rclavicle -4.50247e-014 1.11319e-014 0
rhumerus -29.5905 44.2258 -106.691
rradius 66.8283 -0 0
rwrist -1.94506 0 0
rhand -7.93107 -21.9428 0.0830691
rfingers 7.12502 -0 0
rthumb 17.9733 -51.1069 0.0866713
822
root 2.27234 16.4943 23.7881 3.9787 -5.1456 -7.53902
lfemur -35.6713 1.58399 1.33976
ltibia 21.6145 -0 0
lfoot -6.75941 12.728 0.073714
ltoes 18.7871 -0 0
rfemur 6.96128 4.27563 20.8474
rtibia 20.2309 -0 0
rfoot -20.9533 -12.1087 -0.0126237
rtoes -30.6751 0 0
lowerback -0.474114 6.9152 5.84525
upperback -0.543521 9.19857 0.124877
thorax 0.586839 4.60293 -2.91935
lowerneck -5.48278 -1.3387 3.60937
upperneck 1.1653 -2.05632 1.13163
head 1.25737 -0.980338 -0.308369
lclavicle -4.50247e-014 1.11319e-014 0
lhumerus -54.3639 -5.19645 89.7312
lradius 52.3275 -0 0
lwrist 17.4304 0 0
lhand -6.15884 5.53586 0.00919054
lfingers 7.12502 -0 0
lthumb 19.6763 34.5171 -0.00277268
rclavicle -4.50247e-014 1.11319e-014 0
rhumerus -29.3897 43.9984 -105.893
rradius 66.6908 -0 0
rwrist -2.10447 0 0
rhand -7.37707 -21.3698 0.0775286
rfingers 7.12502 -0 0
rthumb 18.5064 -50.4856 0.0808905
823
root 2.31668 16.4631 23.9663 3.84187 -6.14374 -7.68061
lfemur -35.0936 1.72099 1.57714
ltibia 21.5869 -0 0
lfoot -6.41083 13.5937 0.0631778
ltoes 19.4066 -0 0
rfemur 7.88336 4.2135 20.6891
rtibia 19.8601 -0 0
rfoot -20.7657 -12.3841 -0.0108202
rtoes -31.918 0 0
lowerback -0.672538 7.05957 5.8671
upperback -0.608973 9.37944 0.188272
thorax 0.639939 4.69279 -2.83914
lowerneck -5.41361 -1.28986 3.71493
upperneck 1.46363 -2.00086 1.10005
head 1.33959 -0.94823 -0.3361
lclavicle -4.50247e-014 1.11319e-014 0
lhumerus -54.5545 -4.89794 89.4333
lradius 52.0905 -0 0
lwrist 17.0928 0 0
lhand -5.42835 5.58736 0.00787718
lfingers 7.12502 -0 0
lthumb 20.3789 34.5009 -0.00237646
rclavicle -4.50247e-014 1.11319e-014 0
rhumerus -29.1941 43.769 -105.1
rradius 66.5533 -0 0
rwrist -2.26388 0 0
rhand -6.82315 -20.7969 0.0664488
rfingers 7.12502 -0 0
rthumb 19.0394 -49.8645 0.06933
824
root 2.36103 16.4319 24.1445 3.70725 -7.14221 -7.8201
lfemur -34.5153 1.85558 1.81591
ltibia 21.5594 -0 0
lfoot -6.06246 14.4592 0.0473771
ltoes 20.0262 -0 0
rfemur 8.80555 4.15392 20.5297
rtibia 19.4892 -0 0
rfoot -20.5781 -12.6594 -0.00811499
rtoes -33.1609 0 0
lowerback -0.870968 7.20402 5.88845
upperback -0.674257 9.56039 0.251491
thorax 0.693172 4.78257 -2.75883
lowerneck -5.34435 -1.24115 3.82054
upperneck 1.76193 -1.94524 1.06877
head 1.4218 -0.916083 -0.363784
lclavicle -4.50247e-014 1.11319e-014 0
lhumerus -54.7467 -4.60043 89.1345
lradius 51.8534 -0 0
lwrist 16.7552 0 0
lhand -4.69787 5.63884 0.0059074
lfingers 7.12502 -0 0
lthumb 21.0815 34.4848 -0.00178221
rclavicle -4.50247e-014 1.11319e-014 0
rhumerus -29.0036 43.5377 -104.31
rradius 66.4159 -0 0
rwrist -2.42329 0 0
rhand -6.26938 -20.2242 0.0498318
rfingers 7.12502 -0 0
rthumb 19.5723 -49.2434 0.0519922
825
root 2.40537 16.4006 24.3226 3.57477 -8.141 -7.95754
lfemur -33.9364 1.98776 2.05605
ltibia 21.5318 -0 0
lfoot -5.71436 15.3246 0.026316
ltoes 20.6457 -0 0
rfemur 9.72783 4.0969 20.3695
rtibia 19.1184 -0 0
rfoot -20.3905 -12.9348 -0.00450823
rtoes -34.4038 0 0
lowerback -1.06941 7.34854 5.9093
upperback -0.739373 9.7414 0.314534
thorax 0.746538 4.87228 -2.67843
lowerneck -5.27501 -1.19256 3.92621
upperneck 2.06018 -1.88946 1.03777
head 1.50399 -0.883896 -0.391422
lclavicle -4.50247e-014 1.11319e-014 0
lhumerus -54.9403 -4.30392 88.8349
lradius 51.6164 -0 0
lwrist 16.4175 0 0
lhand -3.9674 5.69028 0.00328153
lfingers 7.12502 -0 0
lthumb 21.784 34.4686 -0.000990019
rclavicle -4.50247e-014 1.11319e-014 0
rhumerus -28.8182 43.3045 -103.525
rradius 66.2784 -0 0
rwrist -2.5827 0 0
rhand -5.71579 -19.6516 0.0276808
rfingers 7.12502 -0 0
rthumb 20.1049 -48.6226 0.0288806
826
root 2.44972 16.3694 24.5008 3.44436 -9.1401 351.907
lfemur -33.3569 2.1175 2.29753
ltibia 21.5043 0 0
lfoot -5.36662 16.1899 0
ltoes 21.2653 0 0
rfemur 10.6502 4.04246 20.2083
rtibia 18.7476 0 0
rfoot -20.2029 -13.2101 0
rtoes -35.6467 0 0
lowerback -1.26786 7.49313 5.92966
upperback -0.804322 9.92249 0.377403
thorax 0.800038 4.96192 -2.59794
lowerneck -5.20557 -1.1441 4.03194
upperneck 2.35839 -1.83352 1.00707
head 1.58616 -0.85167 -0.419013
lclavicle -4.50247e-014 1.11319e-014 0
lhumerus -55.1354 -4.00842 88.5343
lradius 51.3794 0 0
lwrist 16.0799 0 0
lhand -3.23692 5.74169 0
lfingers 7.12502 0 0
lthumb 22.4866 34.4525 0
rclavicle -4.50247e-014 1.11319e-014 0
rhumerus -28.638 43.0695 -102.744
rradius 66.1409 0 0
rwrist -2.74211 0 0
rhand -5.16246 -19.0793 0
rfingers 7.12502 0 0
rthumb 20.6373 -768.002 0
